<svg xmlns="http://www.w3.org/2000/svg" viewBox="0 0 512 512" width="512" height="512">
  <rect width="512" height="512" rx="108" fill="#E8734A"/>
  <g transform="translate(256.0000,256.0000) scale(0.491571,-0.491571) translate(-432.0000,-893.0000)">
    <path d="M59 725Q104 759 358 883L370 892Q349 906 311 927Q305 930 222 979Q206 989 68 1063Q85 1101 105 1133Q344 971 397 942Q398 972 398 978L397 1085L399 1184Q399 1235 394 1293Q435 1294 471 1293V1272Q471 1252 465 1152L458 1004Q456 987 456 979Q456 966 460 941Q480 952 495 964Q585 1031 767 1127Q786 1095 805 1060Q787 1049 604 955Q499 901 490 895Q520 876 553 860Q601 837 610 832L713 775Q753 756 763 751Q777 742 803 724Q787 695 763 659Q752 665 678.5 711.0Q605 757 585 771Q508 826 460 846L459 818Q459 617 466 557Q471 523 471 493L442 492Q426 492 394 498Q393 518 393 533V560L398 793L400 838Q360 818 277.0 763.5Q194 709 95 660Z" fill="#ffffff"/>
  </g>
</svg>